<mxfile host="app.diagrams.net" modified="2022-07-14T07:34:26.236Z" agent="5.0 (Windows)" etag="PpyxAKEpSAbyEHV9QMtu" version="20.0.4" type="github">
  <diagram id="1goI3GVQZ4PJObYNkIat" name="Page-1">
    <mxGraphModel dx="1374" dy="1857" grid="1" gridSize="10" guides="1" tooltips="1" connect="1" arrows="1" fold="1" page="1" pageScale="1" pageWidth="1654" pageHeight="2336" math="0" shadow="0">
      <root>
        <mxCell id="0" />
        <mxCell id="1" parent="0" />
        <mxCell id="54l_NUsAsuN3ZVsKalz9-2" value="" style="rounded=1;absoluteArcSize=1;html=1;arcSize=10;" parent="1" vertex="1">
          <mxGeometry x="190" y="1180" width="560" height="520" as="geometry" />
        </mxCell>
        <mxCell id="54l_NUsAsuN3ZVsKalz9-3" value="main" style="html=1;shape=mxgraph.er.anchor;whiteSpace=wrap;" parent="54l_NUsAsuN3ZVsKalz9-2" vertex="1">
          <mxGeometry width="280" height="520" as="geometry" />
        </mxCell>
        <mxCell id="54l_NUsAsuN3ZVsKalz9-4" value="" style="rounded=1;absoluteArcSize=1;html=1;arcSize=10;whiteSpace=wrap;points=[];strokeColor=#666666;fillColor=#f5f5f5;fontColor=#333333;" parent="54l_NUsAsuN3ZVsKalz9-2" vertex="1">
          <mxGeometry x="297" y="60" width="252" height="434" as="geometry" />
        </mxCell>
        <mxCell id="54l_NUsAsuN3ZVsKalz9-5" value="" style="rounded=1;absoluteArcSize=1;html=1;arcSize=10;whiteSpace=wrap;points=[];strokeColor=#666666;fillColor=#f5f5f5;fontColor=#333333;" parent="54l_NUsAsuN3ZVsKalz9-2" vertex="1">
          <mxGeometry x="8.5" y="47" width="169" height="460" as="geometry" />
        </mxCell>
        <mxCell id="54l_NUsAsuN3ZVsKalz9-6" value="&lt;h2 style=&quot;font-size: 21px;&quot;&gt;&lt;font style=&quot;font-size: 21px;&quot;&gt;&lt;b&gt;ZYNQ&lt;/b&gt;&lt;/font&gt;&lt;/h2&gt;" style="text;html=1;strokeColor=none;fillColor=none;align=center;verticalAlign=middle;whiteSpace=wrap;rounded=0;" parent="54l_NUsAsuN3ZVsKalz9-2" vertex="1">
          <mxGeometry x="11" y="10" width="70" height="30" as="geometry" />
        </mxCell>
        <mxCell id="54l_NUsAsuN3ZVsKalz9-8" value="&lt;font style=&quot;font-size: 19px&quot;&gt;&lt;b&gt;&lt;font style=&quot;font-size: 19px&quot;&gt;Event Receiver&lt;/font&gt;&lt;/b&gt;&lt;/font&gt;" style="text;html=1;strokeColor=none;fillColor=none;align=center;verticalAlign=middle;whiteSpace=wrap;rounded=0;fontSize=29;" parent="54l_NUsAsuN3ZVsKalz9-2" vertex="1">
          <mxGeometry x="340" y="60" width="169.5" height="30" as="geometry" />
        </mxCell>
        <mxCell id="54l_NUsAsuN3ZVsKalz9-9" value="" style="rounded=1;absoluteArcSize=1;html=1;arcSize=10;whiteSpace=wrap;points=[];strokeColor=#6c8ebf;fillColor=#dae8fc;" parent="54l_NUsAsuN3ZVsKalz9-2" vertex="1">
          <mxGeometry x="26" y="82" width="134" height="408" as="geometry" />
        </mxCell>
        <mxCell id="54l_NUsAsuN3ZVsKalz9-10" value="&lt;font style=&quot;font-size: 16px;&quot;&gt;&lt;font style=&quot;font-size: 16px;&quot;&gt;Linux&lt;/font&gt;&lt;/font&gt;" style="text;html=1;strokeColor=none;fillColor=none;align=center;verticalAlign=middle;whiteSpace=wrap;rounded=0;fontSize=29;strokeWidth=3;" parent="54l_NUsAsuN3ZVsKalz9-2" vertex="1">
          <mxGeometry x="69.69" y="82" width="46.62" height="20" as="geometry" />
        </mxCell>
        <mxCell id="54l_NUsAsuN3ZVsKalz9-11" value="" style="rounded=1;absoluteArcSize=1;html=1;arcSize=10;whiteSpace=wrap;points=[];strokeColor=#82b366;fillColor=#d5e8d4;" parent="54l_NUsAsuN3ZVsKalz9-2" vertex="1">
          <mxGeometry x="45.01" y="110" width="95.98" height="350" as="geometry" />
        </mxCell>
        <mxCell id="54l_NUsAsuN3ZVsKalz9-13" value="&lt;font style=&quot;font-size: 14px;&quot;&gt;UIO&lt;/font&gt;" style="text;html=1;strokeColor=none;fillColor=none;align=center;verticalAlign=middle;whiteSpace=wrap;rounded=0;fontSize=14;" parent="54l_NUsAsuN3ZVsKalz9-2" vertex="1">
          <mxGeometry x="71.99" y="110" width="42.01" height="25" as="geometry" />
        </mxCell>
        <mxCell id="54l_NUsAsuN3ZVsKalz9-16" value="&lt;pre class=&quot;tw-data-text tw-text-large tw-ta&quot; id=&quot;tw-target-text&quot; style=&quot;text-align: left;&quot; dir=&quot;ltr&quot;&gt;&lt;font style=&quot;font-size: 12px;&quot; face=&quot;Helvetica&quot;&gt;&lt;span class=&quot;Y2IQFc&quot; lang=&quot;en&quot;&gt;interrupt &lt;br&gt;handler&lt;/span&gt;&lt;/font&gt;&lt;/pre&gt;" style="rounded=1;absoluteArcSize=1;html=1;arcSize=10;whiteSpace=wrap;points=[];strokeColor=inherit;fillColor=inherit;" parent="54l_NUsAsuN3ZVsKalz9-2" vertex="1">
          <mxGeometry x="59.38" y="135" width="67.25" height="300" as="geometry" />
        </mxCell>
        <mxCell id="54l_NUsAsuN3ZVsKalz9-22" value="" style="rounded=1;absoluteArcSize=1;html=1;arcSize=10;whiteSpace=wrap;points=[];" parent="54l_NUsAsuN3ZVsKalz9-2" vertex="1">
          <mxGeometry x="439" y="100" width="92" height="160" as="geometry" />
        </mxCell>
        <mxCell id="54l_NUsAsuN3ZVsKalz9-23" value="&lt;div style=&quot;font-size: 16px&quot;&gt;&lt;font style=&quot;font-size: 16px&quot;&gt;AXI-Lite&lt;/font&gt;&lt;/div&gt;&lt;div style=&quot;font-size: 16px&quot;&gt;&lt;font style=&quot;font-size: 16px&quot;&gt;registers&lt;/font&gt;&lt;br&gt;&lt;/div&gt;" style="rounded=1;absoluteArcSize=1;html=1;arcSize=10;whiteSpace=wrap;points=[];" parent="54l_NUsAsuN3ZVsKalz9-2" vertex="1">
          <mxGeometry x="315" y="100" width="93" height="160" as="geometry" />
        </mxCell>
        <mxCell id="54l_NUsAsuN3ZVsKalz9-24" value="" style="shape=flexArrow;endArrow=classic;startArrow=classic;html=1;rounded=0;shadow=0;sketch=0;fontFamily=Helvetica;fontSize=16;strokeColor=#666666;fillColor=#f5f5f5;exitX=1.005;exitY=0.293;exitDx=0;exitDy=0;exitPerimeter=0;entryX=0.008;entryY=0.46;entryDx=0;entryDy=0;entryPerimeter=0;" parent="54l_NUsAsuN3ZVsKalz9-2" target="54l_NUsAsuN3ZVsKalz9-23" edge="1">
          <mxGeometry width="100" height="100" relative="1" as="geometry">
            <mxPoint x="230.9299000000001" y="173.95000000000005" as="sourcePoint" />
            <mxPoint x="310" y="174" as="targetPoint" />
          </mxGeometry>
        </mxCell>
        <mxCell id="54l_NUsAsuN3ZVsKalz9-26" value="AXI" style="text;html=1;strokeColor=none;fillColor=none;align=center;verticalAlign=middle;whiteSpace=wrap;rounded=0;fontFamily=Helvetica;fontSize=16;" parent="54l_NUsAsuN3ZVsKalz9-2" vertex="1">
          <mxGeometry x="249" y="142" width="58" height="30" as="geometry" />
        </mxCell>
        <mxCell id="54l_NUsAsuN3ZVsKalz9-27" value="&lt;div&gt;Fabric&lt;/div&gt;&lt;div&gt;Interrupts&lt;br&gt;&lt;/div&gt;" style="text;html=1;strokeColor=none;fillColor=none;align=center;verticalAlign=middle;whiteSpace=wrap;rounded=0;fontFamily=Helvetica;fontSize=16;" parent="54l_NUsAsuN3ZVsKalz9-2" vertex="1">
          <mxGeometry x="455" y="210" width="60" height="30" as="geometry" />
        </mxCell>
        <mxCell id="54l_NUsAsuN3ZVsKalz9-28" value="&lt;div&gt;Interrupt&lt;/div&gt;&lt;div&gt;Generation&lt;br&gt;&lt;/div&gt;" style="text;html=1;strokeColor=none;fillColor=none;align=center;verticalAlign=middle;whiteSpace=wrap;rounded=0;fontFamily=Helvetica;fontSize=16;" parent="54l_NUsAsuN3ZVsKalz9-2" vertex="1">
          <mxGeometry x="455" y="130" width="60" height="30" as="geometry" />
        </mxCell>
        <mxCell id="54l_NUsAsuN3ZVsKalz9-29" value="&lt;font style=&quot;font-size: 14px&quot;&gt;MappingRAM&lt;/font&gt;" style="rounded=1;absoluteArcSize=1;html=1;arcSize=10;whiteSpace=wrap;points=[];" parent="54l_NUsAsuN3ZVsKalz9-2" vertex="1">
          <mxGeometry x="317" y="305" width="94" height="160" as="geometry" />
        </mxCell>
        <mxCell id="54l_NUsAsuN3ZVsKalz9-30" value="&lt;font style=&quot;font-size: 16px&quot;&gt;Transceiver&lt;/font&gt;" style="rounded=1;absoluteArcSize=1;html=1;arcSize=10;whiteSpace=wrap;points=[];" parent="54l_NUsAsuN3ZVsKalz9-2" vertex="1">
          <mxGeometry x="439" y="305" width="94" height="70" as="geometry" />
        </mxCell>
        <mxCell id="54l_NUsAsuN3ZVsKalz9-31" value="" style="edgeStyle=orthogonalEdgeStyle;rounded=0;sketch=0;orthogonalLoop=1;jettySize=auto;html=1;shadow=0;fontFamily=Helvetica;fontSize=16;strokeColor=default;fillColor=default;gradientColor=none;" parent="54l_NUsAsuN3ZVsKalz9-2" source="54l_NUsAsuN3ZVsKalz9-32" target="54l_NUsAsuN3ZVsKalz9-30" edge="1">
          <mxGeometry relative="1" as="geometry" />
        </mxCell>
        <mxCell id="54l_NUsAsuN3ZVsKalz9-32" value="&lt;font style=&quot;font-size: 16px&quot;&gt;Output&lt;/font&gt;" style="rounded=1;absoluteArcSize=1;html=1;arcSize=10;whiteSpace=wrap;points=[];" parent="54l_NUsAsuN3ZVsKalz9-2" vertex="1">
          <mxGeometry x="439" y="395" width="94" height="69" as="geometry" />
        </mxCell>
        <mxCell id="54l_NUsAsuN3ZVsKalz9-33" value="" style="shape=flexArrow;endArrow=classic;html=1;rounded=0;shadow=0;sketch=0;fontFamily=Helvetica;fontSize=16;strokeColor=#666666;fillColor=#f5f5f5;entryX=0.522;entryY=1;entryDx=0;entryDy=0;entryPerimeter=0;" parent="54l_NUsAsuN3ZVsKalz9-2" source="54l_NUsAsuN3ZVsKalz9-30" target="54l_NUsAsuN3ZVsKalz9-22" edge="1">
          <mxGeometry width="50" height="50" relative="1" as="geometry">
            <mxPoint x="350" y="220" as="sourcePoint" />
            <mxPoint x="400" y="170" as="targetPoint" />
          </mxGeometry>
        </mxCell>
        <mxCell id="54l_NUsAsuN3ZVsKalz9-34" value="" style="shape=flexArrow;endArrow=classic;html=1;rounded=0;shadow=0;sketch=0;fontFamily=Helvetica;fontSize=16;strokeColor=default;fillColor=default;gradientColor=none;exitX=1;exitY=0.536;exitDx=0;exitDy=0;exitPerimeter=0;" parent="54l_NUsAsuN3ZVsKalz9-2" source="54l_NUsAsuN3ZVsKalz9-32" edge="1">
          <mxGeometry width="50" height="50" relative="1" as="geometry">
            <mxPoint x="533" y="440" as="sourcePoint" />
            <mxPoint x="630" y="432" as="targetPoint" />
          </mxGeometry>
        </mxCell>
        <mxCell id="54l_NUsAsuN3ZVsKalz9-35" value="" style="shape=flexArrow;endArrow=classic;html=1;rounded=0;shadow=0;sketch=0;fontFamily=Helvetica;fontSize=16;strokeColor=#666666;fillColor=#f5f5f5;entryX=1.004;entryY=0.183;entryDx=0;entryDy=0;entryPerimeter=0;width=12.666666666666666;endSize=3;exitX=0.004;exitY=0.419;exitDx=0;exitDy=0;exitPerimeter=0;" parent="54l_NUsAsuN3ZVsKalz9-2" source="54l_NUsAsuN3ZVsKalz9-30" target="54l_NUsAsuN3ZVsKalz9-29" edge="1">
          <mxGeometry width="50" height="50" relative="1" as="geometry">
            <mxPoint x="440" y="334" as="sourcePoint" />
            <mxPoint x="360" y="260" as="targetPoint" />
          </mxGeometry>
        </mxCell>
        <mxCell id="54l_NUsAsuN3ZVsKalz9-36" value="" style="shape=flexArrow;endArrow=classic;html=1;rounded=0;shadow=0;sketch=0;fontFamily=Helvetica;fontSize=16;strokeColor=#666666;fillColor=#f5f5f5;width=11.538461538461538;endSize=2.567307692307692;exitX=0.479;exitY=0.993;exitDx=0;exitDy=0;exitPerimeter=0;entryX=0.479;entryY=0.004;entryDx=0;entryDy=0;entryPerimeter=0;" parent="54l_NUsAsuN3ZVsKalz9-2" source="54l_NUsAsuN3ZVsKalz9-30" target="54l_NUsAsuN3ZVsKalz9-32" edge="1">
          <mxGeometry width="50" height="50" relative="1" as="geometry">
            <mxPoint x="483" y="375" as="sourcePoint" />
            <mxPoint x="533" y="325" as="targetPoint" />
          </mxGeometry>
        </mxCell>
        <mxCell id="54l_NUsAsuN3ZVsKalz9-37" value="" style="shape=flexArrow;endArrow=classic;html=1;rounded=0;shadow=0;sketch=0;fontFamily=Helvetica;fontSize=16;strokeColor=#666666;fillColor=#f5f5f5;entryX=1.004;entryY=0.183;entryDx=0;entryDy=0;entryPerimeter=0;width=12.666666666666666;endSize=3;exitX=0.004;exitY=0.419;exitDx=0;exitDy=0;exitPerimeter=0;" parent="54l_NUsAsuN3ZVsKalz9-2" edge="1">
          <mxGeometry width="50" height="50" relative="1" as="geometry">
            <mxPoint x="410.9960000000002" y="429.0799999999999" as="sourcePoint" />
            <mxPoint x="438.99599999999975" y="429.1299999999999" as="targetPoint" />
          </mxGeometry>
        </mxCell>
        <mxCell id="54l_NUsAsuN3ZVsKalz9-38" value="" style="shape=flexArrow;endArrow=classic;html=1;rounded=0;shadow=0;sketch=0;fontFamily=Helvetica;fontSize=16;strokeColor=#666666;fillColor=#f5f5f5;entryX=0.522;entryY=1;entryDx=0;entryDy=0;entryPerimeter=0;" parent="54l_NUsAsuN3ZVsKalz9-2" edge="1">
          <mxGeometry width="50" height="50" relative="1" as="geometry">
            <mxPoint x="361.6639999999999" y="260" as="sourcePoint" />
            <mxPoint x="361.08799999999985" y="305" as="targetPoint" />
          </mxGeometry>
        </mxCell>
        <mxCell id="54l_NUsAsuN3ZVsKalz9-122" value="&lt;font style=&quot;font-size: 14px;&quot;&gt;&lt;b&gt;&lt;font style=&quot;font-size: 14px;&quot; face=&quot;Helvetica&quot;&gt;&lt;font style=&quot;font-size: 14px;&quot;&gt;&lt;span style=&quot;&quot; class=&quot;markedContent&quot;&gt;&lt;span style=&quot;left: 1054.58px; top: 286.237px; transform: scaleX(0.929872);&quot; dir=&quot;ltr&quot;&gt;ARM Cortex-A9 MPCore&lt;/span&gt;&lt;/span&gt;&lt;/font&gt;&lt;/font&gt;&lt;/b&gt;&lt;/font&gt;" style="text;html=1;strokeColor=none;fillColor=none;align=center;verticalAlign=middle;whiteSpace=wrap;rounded=0;fontFamily=Helvetica;fontSize=14;" parent="54l_NUsAsuN3ZVsKalz9-2" vertex="1">
          <mxGeometry x="42.99999999999999" y="50" width="100" height="30" as="geometry" />
        </mxCell>
        <mxCell id="54l_NUsAsuN3ZVsKalz9-41" value="Pulse" style="text;html=1;strokeColor=none;fillColor=none;align=center;verticalAlign=middle;whiteSpace=wrap;rounded=0;fontFamily=Helvetica;fontSize=16;" parent="1" vertex="1">
          <mxGeometry x="750" y="1560" width="75" height="30" as="geometry" />
        </mxCell>
        <mxCell id="54l_NUsAsuN3ZVsKalz9-42" value="DBus" style="text;html=1;strokeColor=none;fillColor=none;align=center;verticalAlign=middle;whiteSpace=wrap;rounded=0;fontFamily=Helvetica;fontSize=16;" parent="1" vertex="1">
          <mxGeometry x="750" y="1590" width="75" height="30" as="geometry" />
        </mxCell>
        <mxCell id="54l_NUsAsuN3ZVsKalz9-43" value="" style="shape=flexArrow;endArrow=classic;html=1;rounded=0;shadow=0;sketch=0;fontFamily=Helvetica;fontSize=16;strokeColor=default;fillColor=default;gradientColor=none;entryX=1;entryY=0.5;entryDx=0;entryDy=0;entryPerimeter=0;" parent="1" target="54l_NUsAsuN3ZVsKalz9-30" edge="1">
          <mxGeometry width="50" height="50" relative="1" as="geometry">
            <mxPoint x="830" y="1500" as="sourcePoint" />
            <mxPoint x="830" y="1480" as="targetPoint" />
          </mxGeometry>
        </mxCell>
        <mxCell id="54l_NUsAsuN3ZVsKalz9-44" value="RX" style="text;html=1;strokeColor=none;fillColor=none;align=center;verticalAlign=middle;whiteSpace=wrap;rounded=0;fontFamily=Helvetica;fontSize=16;" parent="1" vertex="1">
          <mxGeometry x="757.5" y="1470" width="60" height="30" as="geometry" />
        </mxCell>
        <mxCell id="54l_NUsAsuN3ZVsKalz9-7" value="&lt;div style=&quot;font-size: 28px;&quot;&gt;&lt;p&gt;&lt;font style=&quot;font-size: 28px;&quot; face=&quot;Helvetica&quot;&gt;&lt;b&gt;&lt;font style=&quot;font-size: 28px;&quot;&gt;&lt;span style=&quot;font-size: 14px;&quot; class=&quot;markedContent&quot;&gt;&lt;span style=&quot;left: 1054.58px; top: 286.237px; transform: scaleX(0.929872);&quot; dir=&quot;ltr&quot;&gt;ARM Cortex-A9 MPCore&lt;/span&gt;&lt;/span&gt;&lt;/font&gt;&lt;/b&gt;&lt;/font&gt;&lt;/p&gt;&lt;/div&gt;" style="text;html=1;strokeColor=none;fillColor=none;align=center;verticalAlign=middle;whiteSpace=wrap;rounded=0;fontSize=29;strokeWidth=3;" parent="1" vertex="1">
          <mxGeometry x="40" y="1350" width="144.56" height="70" as="geometry" />
        </mxCell>
        <mxCell id="54l_NUsAsuN3ZVsKalz9-125" value="&lt;font style=&quot;font-size: 20px;&quot;&gt;ZYNQ SoC&lt;/font&gt;" style="text;html=1;strokeColor=none;fillColor=none;align=center;verticalAlign=middle;whiteSpace=wrap;rounded=0;fontFamily=Helvetica;fontSize=14;" parent="1" vertex="1">
          <mxGeometry x="85" y="357" width="110" height="30" as="geometry" />
        </mxCell>
        <mxCell id="54l_NUsAsuN3ZVsKalz9-126" value="" style="rounded=0;whiteSpace=wrap;html=1;fontFamily=Helvetica;fontSize=14;strokeWidth=2;" parent="1" vertex="1">
          <mxGeometry x="90" y="390" width="620" height="600" as="geometry" />
        </mxCell>
        <mxCell id="54l_NUsAsuN3ZVsKalz9-127" value="" style="rounded=0;whiteSpace=wrap;html=1;fontFamily=Helvetica;fontSize=14;strokeWidth=1;fillColor=#dae8fc;strokeColor=#6c8ebf;" parent="1" vertex="1">
          <mxGeometry x="100" y="640" width="600" height="340" as="geometry" />
        </mxCell>
        <mxCell id="54l_NUsAsuN3ZVsKalz9-128" value="" style="rounded=0;whiteSpace=wrap;html=1;fontFamily=Helvetica;fontSize=14;strokeWidth=1;fillColor=#d5e8d4;strokeColor=#82b366;" parent="1" vertex="1">
          <mxGeometry x="100" y="400" width="600" height="180" as="geometry" />
        </mxCell>
        <mxCell id="54l_NUsAsuN3ZVsKalz9-129" value="&lt;div style=&quot;font-size: 20px;&quot; align=&quot;left&quot;&gt;&lt;font style=&quot;font-size: 20px;&quot; face=&quot;Helvetica&quot;&gt;&lt;span class=&quot;markedContent&quot;&gt;&lt;span dir=&quot;ltr&quot; role=&quot;presentation&quot; style=&quot;left: 199.08px; top: 343.458px; transform: scaleX(0.968112);&quot;&gt;&amp;nbsp;Processing System (&lt;/span&gt;&lt;/span&gt;&lt;font style=&quot;font-size: 20px;&quot;&gt;&lt;font style=&quot;font-size: 20px;&quot;&gt;&lt;font style=&quot;font-size: 20px;&quot;&gt;&lt;span style=&quot;&quot; class=&quot;markedContent&quot;&gt;&lt;span style=&quot;left: 1054.58px; top: 286.237px; transform: scaleX(0.929872);&quot; dir=&quot;ltr&quot;&gt;ARM Cortex-A9 MPCore)&lt;/span&gt;&lt;/span&gt;&lt;/font&gt;&lt;/font&gt;&lt;/font&gt;&lt;br&gt;&lt;/font&gt;&lt;/div&gt;&lt;div style=&quot;font-size: 20px;&quot; align=&quot;left&quot;&gt;&lt;font style=&quot;font-size: 20px;&quot;&gt;&amp;nbsp;Linux&lt;br&gt;&lt;/font&gt;&lt;/div&gt;" style="text;html=1;strokeColor=none;fillColor=none;align=left;verticalAlign=middle;whiteSpace=wrap;rounded=0;fontFamily=Helvetica;fontSize=14;" parent="1" vertex="1">
          <mxGeometry x="100" y="400" width="430" height="52.5" as="geometry" />
        </mxCell>
        <mxCell id="6_cSUB1AkO9mFOaKOOmG-74" style="edgeStyle=orthogonalEdgeStyle;rounded=0;orthogonalLoop=1;jettySize=auto;html=1;exitX=0.5;exitY=0;exitDx=0;exitDy=0;entryX=0.5;entryY=1;entryDx=0;entryDy=0;fontFamily=Helvetica;fontSize=16;fillColor=default;" edge="1" parent="1" source="54l_NUsAsuN3ZVsKalz9-131" target="6_cSUB1AkO9mFOaKOOmG-73">
          <mxGeometry relative="1" as="geometry" />
        </mxCell>
        <mxCell id="54l_NUsAsuN3ZVsKalz9-131" value="&lt;div style=&quot;font-size: 20px;&quot;&gt;&lt;font style=&quot;font-size: 20px;&quot;&gt;GTX&lt;/font&gt;&lt;/div&gt;&lt;div style=&quot;font-size: 20px;&quot;&gt;&lt;font style=&quot;font-size: 20px;&quot;&gt;Transceiver&lt;/font&gt;&lt;/div&gt;" style="rounded=0;whiteSpace=wrap;html=1;fontFamily=Helvetica;fontSize=14;strokeWidth=1;" parent="1" vertex="1">
          <mxGeometry x="570" y="747" width="120" height="223" as="geometry" />
        </mxCell>
        <mxCell id="6_cSUB1AkO9mFOaKOOmG-21" style="edgeStyle=orthogonalEdgeStyle;rounded=0;orthogonalLoop=1;jettySize=auto;html=1;exitX=0.001;exitY=0.863;exitDx=0;exitDy=0;entryX=1;entryY=0.5;entryDx=0;entryDy=0;exitPerimeter=0;" edge="1" parent="1" source="54l_NUsAsuN3ZVsKalz9-131" target="54l_NUsAsuN3ZVsKalz9-132">
          <mxGeometry relative="1" as="geometry">
            <Array as="points">
              <mxPoint x="570" y="930" />
            </Array>
          </mxGeometry>
        </mxCell>
        <mxCell id="6_cSUB1AkO9mFOaKOOmG-38" style="edgeStyle=orthogonalEdgeStyle;rounded=0;orthogonalLoop=1;jettySize=auto;html=1;exitX=0.246;exitY=1.004;exitDx=0;exitDy=0;entryX=0.612;entryY=0;entryDx=0;entryDy=0;fontFamily=Helvetica;fontSize=12;exitPerimeter=0;entryPerimeter=0;" edge="1" parent="1">
          <mxGeometry relative="1" as="geometry">
            <mxPoint x="354.74" y="827.3199999999999" as="sourcePoint" />
            <mxPoint x="354.44000000000005" y="890" as="targetPoint" />
            <Array as="points">
              <mxPoint x="355" y="859" />
              <mxPoint x="354" y="859" />
            </Array>
          </mxGeometry>
        </mxCell>
        <mxCell id="54l_NUsAsuN3ZVsKalz9-132" value="&lt;font style=&quot;font-size: 20px;&quot;&gt;Event FIFO&lt;/font&gt;" style="rounded=0;whiteSpace=wrap;html=1;fontFamily=Helvetica;fontSize=14;strokeWidth=1;" parent="1" vertex="1">
          <mxGeometry x="110" y="890" width="370" height="80" as="geometry" />
        </mxCell>
        <mxCell id="54l_NUsAsuN3ZVsKalz9-133" value="&lt;font style=&quot;font-size: 20px;&quot; face=&quot;Helvetica&quot;&gt;AXI-Lite Slave&lt;/font&gt;" style="rounded=0;whiteSpace=wrap;html=1;fontFamily=Helvetica;fontSize=14;strokeWidth=1;" parent="1" vertex="1">
          <mxGeometry x="110" y="680" width="370" height="40" as="geometry" />
        </mxCell>
        <mxCell id="54l_NUsAsuN3ZVsKalz9-135" value="&lt;div style=&quot;font-size: 20px;&quot; align=&quot;left&quot;&gt;&lt;p&gt;&lt;font style=&quot;font-size: 20px;&quot; face=&quot;Helvetica&quot;&gt;&amp;nbsp;&lt;font style=&quot;font-size: 20px;&quot;&gt;&lt;span class=&quot;markedContent&quot;&gt;&lt;span dir=&quot;ltr&quot; role=&quot;presentation&quot; style=&quot;left: 472.269px; top: 707.572px; transform: scaleX(0.923672);&quot;&gt;Programmable Logic&lt;/span&gt;&lt;/span&gt;&lt;/font&gt; (FPGA)&lt;/font&gt;&lt;/p&gt;&lt;/div&gt;" style="text;html=1;strokeColor=none;fillColor=none;align=left;verticalAlign=middle;whiteSpace=wrap;rounded=0;fontFamily=Helvetica;fontSize=14;" parent="1" vertex="1">
          <mxGeometry x="100" y="640" width="280" height="30" as="geometry" />
        </mxCell>
        <mxCell id="6_cSUB1AkO9mFOaKOOmG-10" value="" style="edgeStyle=orthogonalEdgeStyle;rounded=0;orthogonalLoop=1;jettySize=auto;html=1;" edge="1" parent="1">
          <mxGeometry relative="1" as="geometry">
            <mxPoint x="760" y="868" as="sourcePoint" />
            <mxPoint x="690" y="868" as="targetPoint" />
            <Array as="points">
              <mxPoint x="730" y="868" />
              <mxPoint x="730" y="868" />
            </Array>
          </mxGeometry>
        </mxCell>
        <mxCell id="6_cSUB1AkO9mFOaKOOmG-12" value="RXN" style="edgeLabel;html=1;align=center;verticalAlign=middle;resizable=0;points=[];fontSize=16;" vertex="1" connectable="0" parent="6_cSUB1AkO9mFOaKOOmG-10">
          <mxGeometry x="-0.1252" y="1" relative="1" as="geometry">
            <mxPoint x="4" y="-12" as="offset" />
          </mxGeometry>
        </mxCell>
        <mxCell id="6_cSUB1AkO9mFOaKOOmG-13" value="" style="edgeStyle=orthogonalEdgeStyle;rounded=0;orthogonalLoop=1;jettySize=auto;html=1;" edge="1" parent="1">
          <mxGeometry relative="1" as="geometry">
            <mxPoint x="760" y="848.24" as="sourcePoint" />
            <mxPoint x="690" y="848" as="targetPoint" />
            <Array as="points">
              <mxPoint x="730" y="848" />
              <mxPoint x="730" y="848" />
            </Array>
          </mxGeometry>
        </mxCell>
        <mxCell id="6_cSUB1AkO9mFOaKOOmG-14" value="RXP" style="edgeLabel;html=1;align=center;verticalAlign=middle;resizable=0;points=[];fontSize=16;" vertex="1" connectable="0" parent="6_cSUB1AkO9mFOaKOOmG-13">
          <mxGeometry x="-0.1252" y="1" relative="1" as="geometry">
            <mxPoint x="4" y="-13" as="offset" />
          </mxGeometry>
        </mxCell>
        <mxCell id="6_cSUB1AkO9mFOaKOOmG-15" value="&lt;font style=&quot;font-size: 18px;&quot;&gt;EVG&lt;/font&gt;" style="rounded=0;whiteSpace=wrap;html=1;" vertex="1" parent="1">
          <mxGeometry x="760" y="828" width="80" height="60" as="geometry" />
        </mxCell>
        <mxCell id="6_cSUB1AkO9mFOaKOOmG-20" value="&lt;font style=&quot;font-size: 16px;&quot;&gt;recovered clock&lt;/font&gt;" style="text;html=1;strokeColor=none;fillColor=none;align=center;verticalAlign=middle;whiteSpace=wrap;rounded=0;" vertex="1" parent="1">
          <mxGeometry x="430" y="836" width="120" height="20" as="geometry" />
        </mxCell>
        <mxCell id="6_cSUB1AkO9mFOaKOOmG-22" value="&lt;font style=&quot;font-size: 16px;&quot;&gt;event code&lt;/font&gt;" style="text;html=1;strokeColor=none;fillColor=none;align=center;verticalAlign=middle;whiteSpace=wrap;rounded=0;" vertex="1" parent="1">
          <mxGeometry x="481.5" y="906" width="87" height="20" as="geometry" />
        </mxCell>
        <mxCell id="6_cSUB1AkO9mFOaKOOmG-81" style="edgeStyle=orthogonalEdgeStyle;rounded=0;orthogonalLoop=1;jettySize=auto;html=1;fontFamily=Helvetica;fontSize=16;fillColor=default;entryX=0.5;entryY=0;entryDx=0;entryDy=0;" edge="1" parent="1" source="54l_NUsAsuN3ZVsKalz9-131" target="6_cSUB1AkO9mFOaKOOmG-23">
          <mxGeometry relative="1" as="geometry" />
        </mxCell>
        <mxCell id="6_cSUB1AkO9mFOaKOOmG-23" value="&lt;div style=&quot;font-size: 16px;&quot;&gt;&lt;font style=&quot;font-size: 16px;&quot;&gt;write&lt;/font&gt;&lt;/div&gt;&lt;div style=&quot;font-size: 16px;&quot;&gt;&lt;font style=&quot;font-size: 16px;&quot;&gt;clock&lt;br&gt;&lt;/font&gt;&lt;/div&gt;" style="rounded=0;whiteSpace=wrap;html=1;fillColor=#f5f5f5;strokeColor=#666666;fontColor=#333333;" vertex="1" parent="1">
          <mxGeometry x="380" y="890" width="53" height="40" as="geometry" />
        </mxCell>
        <mxCell id="6_cSUB1AkO9mFOaKOOmG-24" value="&lt;div style=&quot;font-size: 16px;&quot;&gt;&lt;font style=&quot;font-size: 16px;&quot;&gt;read&lt;/font&gt;&lt;/div&gt;&lt;div style=&quot;font-size: 16px;&quot;&gt;&lt;font style=&quot;font-size: 16px;&quot;&gt;clock&lt;br&gt;&lt;/font&gt;&lt;/div&gt;" style="rounded=0;whiteSpace=wrap;html=1;fillColor=#f5f5f5;fontColor=#333333;strokeColor=#666666;" vertex="1" parent="1">
          <mxGeometry x="175" y="890" width="53" height="40" as="geometry" />
        </mxCell>
        <mxCell id="6_cSUB1AkO9mFOaKOOmG-27" value="&lt;div style=&quot;font-size: 16px;&quot;&gt;&lt;font style=&quot;font-size: 16px;&quot;&gt;fabric&lt;/font&gt;&lt;/div&gt;&lt;div style=&quot;font-size: 16px;&quot;&gt;&lt;font style=&quot;font-size: 16px;&quot;&gt;clock&lt;/font&gt;&lt;/div&gt;" style="text;html=1;strokeColor=none;fillColor=none;align=center;verticalAlign=middle;whiteSpace=wrap;rounded=0;" vertex="1" parent="1">
          <mxGeometry x="159" y="780" width="42" height="40" as="geometry" />
        </mxCell>
        <mxCell id="6_cSUB1AkO9mFOaKOOmG-29" value="&lt;font style=&quot;font-size: 20px;&quot;&gt;Timestamp &lt;/font&gt;" style="rounded=0;whiteSpace=wrap;html=1;" vertex="1" parent="1">
          <mxGeometry x="290" y="747" width="190" height="80" as="geometry" />
        </mxCell>
        <mxCell id="6_cSUB1AkO9mFOaKOOmG-37" value="&lt;font style=&quot;font-size: 16px;&quot;&gt;timestamp&lt;/font&gt;" style="text;html=1;strokeColor=none;fillColor=none;align=center;verticalAlign=middle;whiteSpace=wrap;rounded=0;fontFamily=Helvetica;fontSize=16;" vertex="1" parent="1">
          <mxGeometry x="274" y="848" width="80" height="20" as="geometry" />
        </mxCell>
        <mxCell id="6_cSUB1AkO9mFOaKOOmG-49" style="edgeStyle=orthogonalEdgeStyle;rounded=0;orthogonalLoop=1;jettySize=auto;html=1;exitX=0.001;exitY=0.863;exitDx=0;exitDy=0;entryX=1;entryY=0.5;entryDx=0;entryDy=0;exitPerimeter=0;" edge="1" parent="1">
          <mxGeometry relative="1" as="geometry">
            <mxPoint x="570" y="787.1200000000002" as="sourcePoint" />
            <mxPoint x="479.8800000000001" y="786.8500000000001" as="targetPoint" />
            <Array as="points">
              <mxPoint x="524.88" y="786.85" />
              <mxPoint x="479.88" y="786.85" />
            </Array>
          </mxGeometry>
        </mxCell>
        <mxCell id="6_cSUB1AkO9mFOaKOOmG-52" value="&lt;font style=&quot;font-size: 16px;&quot;&gt;event code&lt;/font&gt;" style="text;html=1;strokeColor=none;fillColor=none;align=center;verticalAlign=middle;whiteSpace=wrap;rounded=0;" vertex="1" parent="1">
          <mxGeometry x="483" y="763" width="87" height="20" as="geometry" />
        </mxCell>
        <mxCell id="6_cSUB1AkO9mFOaKOOmG-53" value="(0x7d, 0x70, 0x71)" style="text;html=1;strokeColor=none;fillColor=none;align=center;verticalAlign=middle;whiteSpace=wrap;rounded=0;fontFamily=Helvetica;fontSize=10;" vertex="1" parent="1">
          <mxGeometry x="481.5" y="790" width="86.5" height="20" as="geometry" />
        </mxCell>
        <mxCell id="6_cSUB1AkO9mFOaKOOmG-57" style="edgeStyle=orthogonalEdgeStyle;rounded=0;orthogonalLoop=1;jettySize=auto;html=1;exitX=0.215;exitY=0.997;exitDx=0;exitDy=0;entryX=0.5;entryY=0;entryDx=0;entryDy=0;exitPerimeter=0;" edge="1" parent="1">
          <mxGeometry relative="1" as="geometry">
            <mxPoint x="153.95000000000005" y="719.8800000000001" as="sourcePoint" />
            <mxPoint x="154.05999999999995" y="890" as="targetPoint" />
            <Array as="points">
              <mxPoint x="154" y="760" />
              <mxPoint x="154" y="760" />
            </Array>
          </mxGeometry>
        </mxCell>
        <mxCell id="6_cSUB1AkO9mFOaKOOmG-60" value="&lt;div style=&quot;font-size: 14px;&quot;&gt;&lt;font style=&quot;font-size: 14px;&quot;&gt;hand-shaking&lt;/font&gt;&lt;/div&gt;&lt;div style=&quot;font-size: 14px;&quot;&gt;&lt;font style=&quot;font-size: 14px;&quot;&gt;signals&lt;br style=&quot;font-size: 14px;&quot;&gt;&lt;/font&gt;&lt;/div&gt;" style="text;html=1;strokeColor=none;fillColor=none;align=center;verticalAlign=middle;whiteSpace=wrap;rounded=0;fontFamily=Helvetica;fontSize=14;" vertex="1" parent="1">
          <mxGeometry x="97" y="770" width="60" height="60" as="geometry" />
        </mxCell>
        <mxCell id="6_cSUB1AkO9mFOaKOOmG-62" value="&lt;font style=&quot;font-size: 20px;&quot;&gt;&lt;span class=&quot;op_dict3_font24 op_dict3_marginRight c-gap-right&quot;&gt;Interrupt Handler&lt;/span&gt;&lt;/font&gt;" style="rounded=0;whiteSpace=wrap;html=1;fontFamily=Helvetica;fontSize=9;" vertex="1" parent="1">
          <mxGeometry x="110" y="452.5" width="580" height="75" as="geometry" />
        </mxCell>
        <mxCell id="6_cSUB1AkO9mFOaKOOmG-63" value="&lt;font style=&quot;font-size: 20px;&quot;&gt;AXI-Lite Master&lt;/font&gt;" style="text;html=1;strokeColor=none;fillColor=none;align=center;verticalAlign=middle;whiteSpace=wrap;rounded=0;fontFamily=Helvetica;fontSize=9;" vertex="1" parent="1">
          <mxGeometry x="332.5" y="540" width="157.5" height="30" as="geometry" />
        </mxCell>
        <mxCell id="6_cSUB1AkO9mFOaKOOmG-64" value="" style="shape=flexArrow;endArrow=classic;startArrow=classic;html=1;rounded=0;fontFamily=Helvetica;fontSize=14;entryX=0.5;entryY=1;entryDx=0;entryDy=0;fillColor=default;exitX=0.784;exitY=0;exitDx=0;exitDy=0;exitPerimeter=0;" edge="1" parent="1" source="54l_NUsAsuN3ZVsKalz9-133" target="54l_NUsAsuN3ZVsKalz9-128">
          <mxGeometry width="100" height="100" relative="1" as="geometry">
            <mxPoint x="330" y="630" as="sourcePoint" />
            <mxPoint x="430" y="530" as="targetPoint" />
          </mxGeometry>
        </mxCell>
        <mxCell id="6_cSUB1AkO9mFOaKOOmG-72" value="" style="endArrow=classic;html=1;rounded=0;fontFamily=Helvetica;fontSize=16;fillColor=default;exitX=0;exitY=0;exitDx=0;exitDy=0;entryX=0;entryY=1;entryDx=0;entryDy=0;" edge="1" parent="1">
          <mxGeometry width="50" height="50" relative="1" as="geometry">
            <mxPoint x="201.35000000000016" y="720" as="sourcePoint" />
            <mxPoint x="201.35" y="890" as="targetPoint" />
          </mxGeometry>
        </mxCell>
        <mxCell id="6_cSUB1AkO9mFOaKOOmG-95" style="edgeStyle=orthogonalEdgeStyle;rounded=0;orthogonalLoop=1;jettySize=auto;html=1;exitX=0.5;exitY=0;exitDx=0;exitDy=0;entryX=0.896;entryY=1.001;entryDx=0;entryDy=0;entryPerimeter=0;fontFamily=Helvetica;fontSize=16;fillColor=default;" edge="1" parent="1" source="6_cSUB1AkO9mFOaKOOmG-73" target="6_cSUB1AkO9mFOaKOOmG-62">
          <mxGeometry relative="1" as="geometry" />
        </mxCell>
        <mxCell id="6_cSUB1AkO9mFOaKOOmG-73" value="&lt;div style=&quot;font-size: 20px;&quot;&gt;&lt;font style=&quot;font-size: 20px;&quot;&gt;Interrupt&lt;/font&gt;&lt;/div&gt;&lt;div style=&quot;font-size: 20px;&quot;&gt;&lt;font style=&quot;font-size: 20px;&quot;&gt;Generation&lt;br&gt;&lt;/font&gt;&lt;/div&gt;" style="rounded=0;whiteSpace=wrap;html=1;fontFamily=Helvetica;fontSize=16;" vertex="1" parent="1">
          <mxGeometry x="570" y="650" width="120" height="60" as="geometry" />
        </mxCell>
        <mxCell id="6_cSUB1AkO9mFOaKOOmG-75" value="&lt;font style=&quot;font-size: 16px;&quot;&gt;event code&lt;/font&gt;" style="text;html=1;strokeColor=none;fillColor=none;align=center;verticalAlign=middle;whiteSpace=wrap;rounded=0;" vertex="1" parent="1">
          <mxGeometry x="542" y="718" width="87" height="20" as="geometry" />
        </mxCell>
        <mxCell id="6_cSUB1AkO9mFOaKOOmG-80" value="&lt;font style=&quot;font-size: 16px;&quot;&gt;interrupt signal&lt;/font&gt;" style="text;html=1;strokeColor=none;fillColor=none;align=center;verticalAlign=middle;whiteSpace=wrap;rounded=0;" vertex="1" parent="1">
          <mxGeometry x="510" y="598" width="118" height="30" as="geometry" />
        </mxCell>
        <mxCell id="6_cSUB1AkO9mFOaKOOmG-83" value="" style="endArrow=classic;html=1;rounded=0;fontFamily=Helvetica;fontSize=16;fillColor=default;exitX=0.696;exitY=-0.007;exitDx=0;exitDy=0;exitPerimeter=0;entryX=0.408;entryY=1.005;entryDx=0;entryDy=0;entryPerimeter=0;" edge="1" parent="1">
          <mxGeometry width="50" height="50" relative="1" as="geometry">
            <mxPoint x="406.5199999999999" y="889.4399999999999" as="sourcePoint" />
            <mxPoint x="406.52000000000004" y="827.4" as="targetPoint" />
          </mxGeometry>
        </mxCell>
        <mxCell id="6_cSUB1AkO9mFOaKOOmG-90" style="edgeStyle=orthogonalEdgeStyle;rounded=0;orthogonalLoop=1;jettySize=auto;html=1;exitX=0.5;exitY=0;exitDx=0;exitDy=0;entryX=0.439;entryY=0.992;entryDx=0;entryDy=0;entryPerimeter=0;fontFamily=Helvetica;fontSize=14;fillColor=default;" edge="1" parent="1" target="54l_NUsAsuN3ZVsKalz9-133">
          <mxGeometry relative="1" as="geometry">
            <mxPoint x="273" y="890" as="sourcePoint" />
          </mxGeometry>
        </mxCell>
        <mxCell id="6_cSUB1AkO9mFOaKOOmG-89" value="&lt;div style=&quot;font-size: 14px;&quot;&gt;&lt;font style=&quot;font-size: 14px;&quot;&gt;event code&lt;/font&gt;&lt;/div&gt;&lt;div style=&quot;font-size: 14px;&quot;&gt;&lt;font style=&quot;font-size: 14px;&quot;&gt;timestamp&lt;br style=&quot;font-size: 14px;&quot;&gt;&lt;/font&gt;&lt;/div&gt;" style="text;html=1;strokeColor=none;fillColor=none;align=center;verticalAlign=middle;whiteSpace=wrap;rounded=0;fontFamily=Helvetica;fontSize=14;" vertex="1" parent="1">
          <mxGeometry x="201" y="767.5" width="72" height="65" as="geometry" />
        </mxCell>
        <mxCell id="6_cSUB1AkO9mFOaKOOmG-92" value="&lt;font style=&quot;font-size: 16px;&quot;&gt;GP AXI Interface&lt;/font&gt;" style="text;html=1;strokeColor=none;fillColor=none;align=center;verticalAlign=middle;whiteSpace=wrap;rounded=0;" vertex="1" parent="1">
          <mxGeometry x="260" y="598" width="131" height="30" as="geometry" />
        </mxCell>
        <mxCell id="6_cSUB1AkO9mFOaKOOmG-100" value="" style="rounded=0;whiteSpace=wrap;html=1;fontFamily=Helvetica;fontSize=16;" vertex="1" parent="1">
          <mxGeometry x="1000" y="960" width="160" height="200" as="geometry" />
        </mxCell>
        <mxCell id="6_cSUB1AkO9mFOaKOOmG-102" value="" style="endArrow=classic;html=1;rounded=0;fontFamily=Helvetica;fontSize=16;fillColor=default;entryX=0;entryY=0.5;entryDx=0;entryDy=0;" edge="1" parent="1" target="6_cSUB1AkO9mFOaKOOmG-100">
          <mxGeometry width="50" height="50" relative="1" as="geometry">
            <mxPoint x="980" y="1060" as="sourcePoint" />
            <mxPoint x="1210" y="950" as="targetPoint" />
          </mxGeometry>
        </mxCell>
        <mxCell id="6_cSUB1AkO9mFOaKOOmG-103" value="RXP/N" style="text;html=1;strokeColor=none;fillColor=none;align=center;verticalAlign=middle;whiteSpace=wrap;rounded=0;fontFamily=Helvetica;fontSize=16;" vertex="1" parent="1">
          <mxGeometry x="920" y="1045" width="60" height="30" as="geometry" />
        </mxCell>
        <mxCell id="6_cSUB1AkO9mFOaKOOmG-109" style="edgeStyle=orthogonalEdgeStyle;rounded=0;orthogonalLoop=1;jettySize=auto;html=1;exitX=0.5;exitY=0;exitDx=0;exitDy=0;entryX=0.5;entryY=1;entryDx=0;entryDy=0;fontFamily=Helvetica;fontSize=16;fillColor=default;" edge="1" parent="1" source="6_cSUB1AkO9mFOaKOOmG-106" target="6_cSUB1AkO9mFOaKOOmG-100">
          <mxGeometry relative="1" as="geometry" />
        </mxCell>
        <mxCell id="6_cSUB1AkO9mFOaKOOmG-106" value="" style="rounded=0;whiteSpace=wrap;html=1;fontFamily=Helvetica;fontSize=16;" vertex="1" parent="1">
          <mxGeometry x="1040" y="1200" width="80" height="40" as="geometry" />
        </mxCell>
        <mxCell id="6_cSUB1AkO9mFOaKOOmG-105" value="&lt;font style=&quot;font-size: 20px;&quot;&gt;PLL&lt;/font&gt;" style="text;html=1;strokeColor=none;fillColor=none;align=center;verticalAlign=middle;whiteSpace=wrap;rounded=0;fontFamily=Helvetica;fontSize=16;" vertex="1" parent="1">
          <mxGeometry x="1060" y="1210" width="40" height="20" as="geometry" />
        </mxCell>
        <mxCell id="6_cSUB1AkO9mFOaKOOmG-107" value="" style="endArrow=classic;html=1;rounded=0;fontFamily=Helvetica;fontSize=16;fillColor=default;" edge="1" parent="1">
          <mxGeometry width="50" height="50" relative="1" as="geometry">
            <mxPoint x="1080" y="1280" as="sourcePoint" />
            <mxPoint x="1080" y="1240" as="targetPoint" />
          </mxGeometry>
        </mxCell>
        <mxCell id="6_cSUB1AkO9mFOaKOOmG-108" value="&lt;div&gt;reference&lt;/div&gt;&lt;div&gt;clock&lt;br&gt;&lt;/div&gt;" style="text;html=1;strokeColor=none;fillColor=none;align=center;verticalAlign=middle;whiteSpace=wrap;rounded=0;fontFamily=Helvetica;fontSize=16;" vertex="1" parent="1">
          <mxGeometry x="1045" y="1280" width="70" height="40" as="geometry" />
        </mxCell>
        <mxCell id="6_cSUB1AkO9mFOaKOOmG-110" value="" style="rounded=0;whiteSpace=wrap;html=1;fontFamily=Helvetica;fontSize=16;" vertex="1" parent="1">
          <mxGeometry x="1020" y="1060" width="120" height="80" as="geometry" />
        </mxCell>
        <mxCell id="6_cSUB1AkO9mFOaKOOmG-111" value="&lt;font style=&quot;font-size: 20px;&quot; face=&quot;Helvetica&quot;&gt;&lt;span class=&quot;markedContent&quot; style=&quot;&quot;&gt;&lt;span class=&quot;markedContent&quot; style=&quot;&quot;&gt;&lt;span dir=&quot;ltr&quot; role=&quot;presentation&quot; style=&quot;left: 306.765px; top: 526.955px; transform: scaleX(0.986756);&quot;&gt;Ph&lt;/span&gt;&lt;span dir=&quot;ltr&quot; role=&quot;presentation&quot; style=&quot;left: 321.318px; top: 526.955px; transform: scaleX(1.03203);&quot;&gt;as&lt;/span&gt;&lt;span dir=&quot;ltr&quot; role=&quot;presentation&quot; style=&quot;left: 333.886px; top: 526.955px;&quot;&gt;e&lt;/span&gt;&lt;br role=&quot;presentation&quot; style=&quot;&quot;&gt;&lt;span dir=&quot;ltr&quot; role=&quot;presentation&quot; style=&quot;left: 307.152px; top: 541.355px; transform: scaleX(0.90397);&quot;&gt;Interp.&lt;/span&gt;&lt;/span&gt;&lt;/span&gt;&lt;/font&gt;" style="text;html=1;strokeColor=none;fillColor=none;align=center;verticalAlign=middle;whiteSpace=wrap;rounded=0;fontFamily=Helvetica;fontSize=16;" vertex="1" parent="1">
          <mxGeometry x="1045" y="1073.75" width="70" height="52.5" as="geometry" />
        </mxCell>
        <mxCell id="6_cSUB1AkO9mFOaKOOmG-112" value="&lt;font style=&quot;font-size: 20px;&quot;&gt;CDR&lt;/font&gt;" style="text;html=1;strokeColor=none;fillColor=none;align=center;verticalAlign=middle;whiteSpace=wrap;rounded=0;fontFamily=Helvetica;fontSize=16;" vertex="1" parent="1">
          <mxGeometry x="1050" y="985" width="60" height="30" as="geometry" />
        </mxCell>
        <mxCell id="6_cSUB1AkO9mFOaKOOmG-115" style="edgeStyle=orthogonalEdgeStyle;rounded=0;orthogonalLoop=1;jettySize=auto;html=1;exitX=1;exitY=0.1;exitDx=0;exitDy=0;entryX=0;entryY=0.25;entryDx=0;entryDy=0;fontFamily=Helvetica;fontSize=16;fillColor=default;exitPerimeter=0;" edge="1" parent="1" source="6_cSUB1AkO9mFOaKOOmG-100" target="6_cSUB1AkO9mFOaKOOmG-113">
          <mxGeometry relative="1" as="geometry" />
        </mxCell>
        <mxCell id="6_cSUB1AkO9mFOaKOOmG-113" value="&lt;font style=&quot;font-size: 20px;&quot; face=&quot;Helvetica&quot;&gt;SIPO&lt;/font&gt;" style="rounded=0;whiteSpace=wrap;html=1;fontFamily=Helvetica;fontSize=16;" vertex="1" parent="1">
          <mxGeometry x="1200" y="960" width="120" height="80" as="geometry" />
        </mxCell>
        <mxCell id="6_cSUB1AkO9mFOaKOOmG-126" style="edgeStyle=orthogonalEdgeStyle;rounded=0;orthogonalLoop=1;jettySize=auto;html=1;exitX=1;exitY=0.5;exitDx=0;exitDy=0;entryX=0;entryY=0.5;entryDx=0;entryDy=0;fontFamily=Helvetica;fontSize=16;fillColor=default;" edge="1" parent="1" source="6_cSUB1AkO9mFOaKOOmG-110" target="6_cSUB1AkO9mFOaKOOmG-116">
          <mxGeometry relative="1" as="geometry" />
        </mxCell>
        <mxCell id="6_cSUB1AkO9mFOaKOOmG-128" style="edgeStyle=orthogonalEdgeStyle;rounded=0;orthogonalLoop=1;jettySize=auto;html=1;exitX=0;exitY=0.5;exitDx=0;exitDy=0;entryX=0;entryY=0.5;entryDx=0;entryDy=0;fontFamily=Helvetica;fontSize=16;fillColor=default;" edge="1" parent="1" source="6_cSUB1AkO9mFOaKOOmG-118" target="6_cSUB1AkO9mFOaKOOmG-130">
          <mxGeometry relative="1" as="geometry">
            <Array as="points">
              <mxPoint x="1260" y="1100" />
              <mxPoint x="1260" y="1050" />
              <mxPoint x="1180" y="1050" />
              <mxPoint x="1180" y="1020" />
            </Array>
          </mxGeometry>
        </mxCell>
        <mxCell id="6_cSUB1AkO9mFOaKOOmG-134" style="edgeStyle=orthogonalEdgeStyle;rounded=0;orthogonalLoop=1;jettySize=auto;html=1;exitX=1;exitY=0.5;exitDx=0;exitDy=0;entryX=0;entryY=0.5;entryDx=0;entryDy=0;fontFamily=Helvetica;fontSize=16;fillColor=default;" edge="1" parent="1" source="6_cSUB1AkO9mFOaKOOmG-116" target="6_cSUB1AkO9mFOaKOOmG-118">
          <mxGeometry relative="1" as="geometry" />
        </mxCell>
        <mxCell id="6_cSUB1AkO9mFOaKOOmG-116" value="" style="rounded=0;whiteSpace=wrap;html=1;fontFamily=Helvetica;fontSize=16;" vertex="1" parent="1">
          <mxGeometry x="1200" y="1060" width="40" height="80" as="geometry" />
        </mxCell>
        <mxCell id="6_cSUB1AkO9mFOaKOOmG-117" value="&lt;div style=&quot;font-size: 18px;&quot;&gt;&lt;font style=&quot;font-size: 18px;&quot;&gt;/D&lt;/font&gt;&lt;/div&gt;&lt;div style=&quot;font-size: 18px;&quot;&gt;&lt;font style=&quot;font-size: 18px;&quot;&gt;2&lt;br&gt;&lt;/font&gt;&lt;/div&gt;" style="text;html=1;strokeColor=none;fillColor=none;align=center;verticalAlign=middle;whiteSpace=wrap;rounded=0;fontFamily=Helvetica;fontSize=16;" vertex="1" parent="1">
          <mxGeometry x="1205" y="1078.75" width="30" height="42.5" as="geometry" />
        </mxCell>
        <mxCell id="6_cSUB1AkO9mFOaKOOmG-129" style="edgeStyle=orthogonalEdgeStyle;rounded=0;orthogonalLoop=1;jettySize=auto;html=1;exitX=1;exitY=0.5;exitDx=0;exitDy=0;entryX=0;entryY=0.5;entryDx=0;entryDy=0;fontFamily=Helvetica;fontSize=16;fillColor=default;" edge="1" parent="1" source="6_cSUB1AkO9mFOaKOOmG-118" target="6_cSUB1AkO9mFOaKOOmG-120">
          <mxGeometry relative="1" as="geometry" />
        </mxCell>
        <mxCell id="6_cSUB1AkO9mFOaKOOmG-118" value="&lt;font style=&quot;font-size: 18px;&quot;&gt;/5&lt;/font&gt;" style="rounded=0;whiteSpace=wrap;html=1;fontFamily=Helvetica;fontSize=16;" vertex="1" parent="1">
          <mxGeometry x="1280" y="1060" width="40" height="80" as="geometry" />
        </mxCell>
        <mxCell id="6_cSUB1AkO9mFOaKOOmG-135" style="edgeStyle=orthogonalEdgeStyle;rounded=0;orthogonalLoop=1;jettySize=auto;html=1;exitX=1;exitY=0.5;exitDx=0;exitDy=0;entryX=0;entryY=0.5;entryDx=0;entryDy=0;fontFamily=Helvetica;fontSize=16;fillColor=default;" edge="1" parent="1" source="6_cSUB1AkO9mFOaKOOmG-120" target="6_cSUB1AkO9mFOaKOOmG-132">
          <mxGeometry relative="1" as="geometry">
            <Array as="points">
              <mxPoint x="1420" y="1100" />
              <mxPoint x="1420" y="1020" />
            </Array>
          </mxGeometry>
        </mxCell>
        <mxCell id="6_cSUB1AkO9mFOaKOOmG-120" value="&lt;font style=&quot;font-size: 18px;&quot;&gt;/2&lt;/font&gt;" style="rounded=0;whiteSpace=wrap;html=1;fontFamily=Helvetica;fontSize=16;" vertex="1" parent="1">
          <mxGeometry x="1360" y="1060" width="40" height="80" as="geometry" />
        </mxCell>
        <mxCell id="6_cSUB1AkO9mFOaKOOmG-130" value="" style="triangle;whiteSpace=wrap;html=1;fontFamily=Helvetica;fontSize=16;" vertex="1" parent="1">
          <mxGeometry x="1200" y="1010" width="20" height="20" as="geometry" />
        </mxCell>
        <mxCell id="6_cSUB1AkO9mFOaKOOmG-132" value="" style="triangle;whiteSpace=wrap;html=1;fontFamily=Helvetica;fontSize=16;direction=west;" vertex="1" parent="1">
          <mxGeometry x="1300" y="1010" width="20" height="20" as="geometry" />
        </mxCell>
        <mxCell id="6_cSUB1AkO9mFOaKOOmG-136" value="" style="endArrow=classic;html=1;rounded=0;fontFamily=Helvetica;fontSize=16;fillColor=default;" edge="1" parent="1">
          <mxGeometry width="50" height="50" relative="1" as="geometry">
            <mxPoint x="1400" y="1100" as="sourcePoint" />
            <mxPoint x="1440" y="1100" as="targetPoint" />
          </mxGeometry>
        </mxCell>
        <mxCell id="6_cSUB1AkO9mFOaKOOmG-137" value="&lt;div&gt;Recovered&lt;/div&gt;&lt;div&gt;Clock&lt;br&gt;&lt;/div&gt;" style="text;html=1;strokeColor=none;fillColor=none;align=center;verticalAlign=middle;whiteSpace=wrap;rounded=0;fontFamily=Helvetica;fontSize=16;" vertex="1" parent="1">
          <mxGeometry x="1420" y="1071" width="90" height="45" as="geometry" />
        </mxCell>
        <mxCell id="6_cSUB1AkO9mFOaKOOmG-138" value="&lt;font style=&quot;font-size: 18px;&quot;&gt;x20&lt;/font&gt;" style="text;html=1;strokeColor=none;fillColor=none;align=center;verticalAlign=middle;whiteSpace=wrap;rounded=0;fontFamily=Helvetica;fontSize=16;" vertex="1" parent="1">
          <mxGeometry x="1040" y="1169" width="40" height="28" as="geometry" />
        </mxCell>
        <mxCell id="6_cSUB1AkO9mFOaKOOmG-139" value="" style="shape=curlyBracket;whiteSpace=wrap;html=1;rounded=1;fontFamily=Helvetica;fontSize=16;direction=north;" vertex="1" parent="1">
          <mxGeometry x="1200" y="1150" width="200" height="20" as="geometry" />
        </mxCell>
        <mxCell id="6_cSUB1AkO9mFOaKOOmG-140" value="&lt;font style=&quot;font-size: 18px;&quot;&gt;/20&lt;/font&gt;" style="text;html=1;strokeColor=none;fillColor=none;align=center;verticalAlign=middle;whiteSpace=wrap;rounded=0;fontFamily=Helvetica;fontSize=16;" vertex="1" parent="1">
          <mxGeometry x="1270" y="1168" width="60" height="30" as="geometry" />
        </mxCell>
        <mxCell id="6_cSUB1AkO9mFOaKOOmG-141" value="" style="pointerEvents=1;verticalLabelPosition=bottom;shadow=0;dashed=0;align=center;html=1;verticalAlign=top;shape=mxgraph.electrical.waveforms.square_wave;fontFamily=Helvetica;fontSize=20;" vertex="1" parent="1">
          <mxGeometry x="1040" y="1480" width="40" height="40" as="geometry" />
        </mxCell>
        <mxCell id="6_cSUB1AkO9mFOaKOOmG-142" value="" style="pointerEvents=1;verticalLabelPosition=bottom;shadow=0;dashed=0;align=center;html=1;verticalAlign=top;shape=mxgraph.electrical.waveforms.square_wave;fontFamily=Helvetica;fontSize=20;" vertex="1" parent="1">
          <mxGeometry x="1080" y="1480" width="40" height="40" as="geometry" />
        </mxCell>
        <mxCell id="6_cSUB1AkO9mFOaKOOmG-143" value="" style="pointerEvents=1;verticalLabelPosition=bottom;shadow=0;dashed=0;align=center;html=1;verticalAlign=top;shape=mxgraph.electrical.waveforms.square_wave;fontFamily=Helvetica;fontSize=20;" vertex="1" parent="1">
          <mxGeometry x="1120" y="1480" width="40" height="40" as="geometry" />
        </mxCell>
        <mxCell id="6_cSUB1AkO9mFOaKOOmG-144" value="" style="pointerEvents=1;verticalLabelPosition=bottom;shadow=0;dashed=0;align=center;html=1;verticalAlign=top;shape=mxgraph.electrical.waveforms.square_wave;fontFamily=Helvetica;fontSize=20;" vertex="1" parent="1">
          <mxGeometry x="1160" y="1480" width="40" height="40" as="geometry" />
        </mxCell>
        <mxCell id="6_cSUB1AkO9mFOaKOOmG-145" value="" style="pointerEvents=1;verticalLabelPosition=bottom;shadow=0;dashed=0;align=center;html=1;verticalAlign=top;shape=mxgraph.electrical.waveforms.square_wave;fontFamily=Helvetica;fontSize=20;" vertex="1" parent="1">
          <mxGeometry x="1200" y="1480" width="40" height="40" as="geometry" />
        </mxCell>
        <mxCell id="6_cSUB1AkO9mFOaKOOmG-146" value="" style="pointerEvents=1;verticalLabelPosition=bottom;shadow=0;dashed=0;align=center;html=1;verticalAlign=top;shape=mxgraph.electrical.waveforms.square_wave;fontFamily=Helvetica;fontSize=20;" vertex="1" parent="1">
          <mxGeometry x="1240" y="1480" width="40" height="40" as="geometry" />
        </mxCell>
        <mxCell id="6_cSUB1AkO9mFOaKOOmG-148" value="&amp;nbsp; 0x00000000" style="shape=hexagon;perimeter=hexagonPerimeter2;whiteSpace=wrap;html=1;fixedSize=1;fontFamily=Helvetica;fontSize=20;size=10;fillColor=#f5f5f5;fontColor=#333333;strokeColor=#666666;align=left;" vertex="1" parent="1">
          <mxGeometry x="1040" y="1560" width="290" height="40" as="geometry" />
        </mxCell>
        <mxCell id="6_cSUB1AkO9mFOaKOOmG-149" value="&amp;nbsp; 0x43c00010" style="shape=hexagon;perimeter=hexagonPerimeter2;whiteSpace=wrap;html=1;fixedSize=1;fontFamily=Helvetica;fontSize=20;size=10;fillColor=#f5f5f5;fontColor=#333333;strokeColor=#666666;align=left;" vertex="1" parent="1">
          <mxGeometry x="1330" y="1560" width="240" height="40" as="geometry" />
        </mxCell>
        <mxCell id="6_cSUB1AkO9mFOaKOOmG-153" value="&amp;nbsp; 0x00000000" style="shape=hexagon;perimeter=hexagonPerimeter2;whiteSpace=wrap;html=1;fixedSize=1;fontFamily=Helvetica;fontSize=20;size=10;fillColor=#f5f5f5;fontColor=#333333;strokeColor=#666666;align=left;" vertex="1" parent="1">
          <mxGeometry x="1570" y="1560" width="210" height="40" as="geometry" />
        </mxCell>
        <mxCell id="6_cSUB1AkO9mFOaKOOmG-154" value="" style="pointerEvents=1;verticalLabelPosition=bottom;shadow=0;dashed=0;align=center;html=1;verticalAlign=top;shape=mxgraph.electrical.waveforms.square_wave;fontFamily=Helvetica;fontSize=20;" vertex="1" parent="1">
          <mxGeometry x="1280" y="1480" width="40" height="40" as="geometry" />
        </mxCell>
        <mxCell id="6_cSUB1AkO9mFOaKOOmG-155" value="" style="pointerEvents=1;verticalLabelPosition=bottom;shadow=0;dashed=0;align=center;html=1;verticalAlign=top;shape=mxgraph.electrical.waveforms.square_wave;fontFamily=Helvetica;fontSize=20;" vertex="1" parent="1">
          <mxGeometry x="1320" y="1480" width="40" height="40" as="geometry" />
        </mxCell>
        <mxCell id="6_cSUB1AkO9mFOaKOOmG-156" value="" style="pointerEvents=1;verticalLabelPosition=bottom;shadow=0;dashed=0;align=center;html=1;verticalAlign=top;shape=mxgraph.electrical.waveforms.square_wave;fontFamily=Helvetica;fontSize=20;" vertex="1" parent="1">
          <mxGeometry x="1360" y="1480" width="40" height="40" as="geometry" />
        </mxCell>
        <mxCell id="6_cSUB1AkO9mFOaKOOmG-157" value="" style="pointerEvents=1;verticalLabelPosition=bottom;shadow=0;dashed=0;align=center;html=1;verticalAlign=top;shape=mxgraph.electrical.waveforms.square_wave;fontFamily=Helvetica;fontSize=20;" vertex="1" parent="1">
          <mxGeometry x="1400" y="1480" width="40" height="40" as="geometry" />
        </mxCell>
        <mxCell id="6_cSUB1AkO9mFOaKOOmG-158" value="" style="pointerEvents=1;verticalLabelPosition=bottom;shadow=0;dashed=0;align=center;html=1;verticalAlign=top;shape=mxgraph.electrical.waveforms.square_wave;fontFamily=Helvetica;fontSize=20;" vertex="1" parent="1">
          <mxGeometry x="1440" y="1480" width="40" height="40" as="geometry" />
        </mxCell>
        <mxCell id="6_cSUB1AkO9mFOaKOOmG-159" value="" style="pointerEvents=1;verticalLabelPosition=bottom;shadow=0;dashed=0;align=center;html=1;verticalAlign=top;shape=mxgraph.electrical.waveforms.square_wave;fontFamily=Helvetica;fontSize=20;" vertex="1" parent="1">
          <mxGeometry x="1480" y="1480" width="40" height="40" as="geometry" />
        </mxCell>
        <mxCell id="6_cSUB1AkO9mFOaKOOmG-160" value="" style="pointerEvents=1;verticalLabelPosition=bottom;shadow=0;dashed=0;align=center;html=1;verticalAlign=top;shape=mxgraph.electrical.waveforms.square_wave;fontFamily=Helvetica;fontSize=20;" vertex="1" parent="1">
          <mxGeometry x="1520" y="1480" width="40" height="40" as="geometry" />
        </mxCell>
        <mxCell id="6_cSUB1AkO9mFOaKOOmG-161" value="" style="pointerEvents=1;verticalLabelPosition=bottom;shadow=0;dashed=0;align=center;html=1;verticalAlign=top;shape=mxgraph.electrical.waveforms.square_wave;fontFamily=Helvetica;fontSize=20;" vertex="1" parent="1">
          <mxGeometry x="1560" y="1480" width="40" height="40" as="geometry" />
        </mxCell>
        <mxCell id="6_cSUB1AkO9mFOaKOOmG-162" value="" style="pointerEvents=1;verticalLabelPosition=bottom;shadow=0;dashed=0;align=center;html=1;verticalAlign=top;shape=mxgraph.electrical.waveforms.square_wave;fontFamily=Helvetica;fontSize=20;" vertex="1" parent="1">
          <mxGeometry x="1600" y="1480" width="40" height="40" as="geometry" />
        </mxCell>
        <mxCell id="6_cSUB1AkO9mFOaKOOmG-164" value="" style="pointerEvents=1;verticalLabelPosition=bottom;shadow=0;dashed=0;align=center;html=1;verticalAlign=top;shape=mxgraph.electrical.waveforms.square_wave;fontFamily=Helvetica;fontSize=20;" vertex="1" parent="1">
          <mxGeometry x="1640" y="1480" width="40" height="40" as="geometry" />
        </mxCell>
        <mxCell id="6_cSUB1AkO9mFOaKOOmG-165" value="" style="pointerEvents=1;verticalLabelPosition=bottom;shadow=0;dashed=0;align=center;html=1;verticalAlign=top;shape=mxgraph.electrical.waveforms.square_wave;fontFamily=Helvetica;fontSize=20;" vertex="1" parent="1">
          <mxGeometry x="1680" y="1480" width="40" height="40" as="geometry" />
        </mxCell>
        <mxCell id="6_cSUB1AkO9mFOaKOOmG-166" value="" style="pointerEvents=1;verticalLabelPosition=bottom;shadow=0;dashed=0;align=center;html=1;verticalAlign=top;shape=mxgraph.electrical.waveforms.square_wave;fontFamily=Helvetica;fontSize=20;" vertex="1" parent="1">
          <mxGeometry x="1720" y="1480" width="40" height="40" as="geometry" />
        </mxCell>
        <mxCell id="6_cSUB1AkO9mFOaKOOmG-167" value="" style="pointerEvents=1;verticalLabelPosition=bottom;shadow=0;dashed=0;align=center;html=1;verticalAlign=top;shape=mxgraph.electrical.waveforms.square_wave;fontFamily=Helvetica;fontSize=20;" vertex="1" parent="1">
          <mxGeometry x="1760" y="1480" width="40" height="40" as="geometry" />
        </mxCell>
        <mxCell id="6_cSUB1AkO9mFOaKOOmG-168" value="" style="pointerEvents=1;verticalLabelPosition=bottom;shadow=0;dashed=0;align=center;html=1;verticalAlign=top;shape=mxgraph.electrical.waveforms.square_wave;fontFamily=Helvetica;fontSize=20;" vertex="1" parent="1">
          <mxGeometry x="1800" y="1480" width="40" height="40" as="geometry" />
        </mxCell>
        <mxCell id="6_cSUB1AkO9mFOaKOOmG-169" value="" style="endArrow=none;html=1;rounded=0;fontFamily=Helvetica;fontSize=20;fillColor=default;" edge="1" parent="1">
          <mxGeometry width="50" height="50" relative="1" as="geometry">
            <mxPoint x="1040" y="1640" as="sourcePoint" />
            <mxPoint x="1050" y="1680" as="targetPoint" />
          </mxGeometry>
        </mxCell>
        <mxCell id="6_cSUB1AkO9mFOaKOOmG-170" value="" style="endArrow=none;html=1;rounded=0;fontFamily=Helvetica;fontSize=20;fillColor=default;" edge="1" parent="1">
          <mxGeometry width="50" height="50" relative="1" as="geometry">
            <mxPoint x="1050" y="1680" as="sourcePoint" />
            <mxPoint x="1330" y="1680" as="targetPoint" />
          </mxGeometry>
        </mxCell>
        <mxCell id="6_cSUB1AkO9mFOaKOOmG-172" value="" style="endArrow=none;html=1;rounded=0;fontFamily=Helvetica;fontSize=20;fillColor=default;" edge="1" parent="1">
          <mxGeometry width="50" height="50" relative="1" as="geometry">
            <mxPoint x="1330" y="1680" as="sourcePoint" />
            <mxPoint x="1340" y="1640" as="targetPoint" />
          </mxGeometry>
        </mxCell>
        <mxCell id="6_cSUB1AkO9mFOaKOOmG-173" value="" style="endArrow=none;html=1;rounded=0;fontFamily=Helvetica;fontSize=20;fillColor=default;" edge="1" parent="1">
          <mxGeometry width="50" height="50" relative="1" as="geometry">
            <mxPoint x="1340" y="1640" as="sourcePoint" />
            <mxPoint x="1570" y="1640" as="targetPoint" />
          </mxGeometry>
        </mxCell>
        <mxCell id="6_cSUB1AkO9mFOaKOOmG-174" value="" style="endArrow=none;html=1;rounded=0;fontFamily=Helvetica;fontSize=20;fillColor=default;" edge="1" parent="1">
          <mxGeometry width="50" height="50" relative="1" as="geometry">
            <mxPoint x="1570" y="1640" as="sourcePoint" />
            <mxPoint x="1580" y="1680" as="targetPoint" />
          </mxGeometry>
        </mxCell>
        <mxCell id="6_cSUB1AkO9mFOaKOOmG-175" value="" style="endArrow=none;html=1;rounded=0;fontFamily=Helvetica;fontSize=20;fillColor=default;" edge="1" parent="1">
          <mxGeometry width="50" height="50" relative="1" as="geometry">
            <mxPoint x="1580" y="1680" as="sourcePoint" />
            <mxPoint x="1800" y="1680" as="targetPoint" />
          </mxGeometry>
        </mxCell>
        <mxCell id="6_cSUB1AkO9mFOaKOOmG-176" value="" style="endArrow=none;html=1;rounded=0;fontFamily=Helvetica;fontSize=20;fillColor=default;" edge="1" parent="1">
          <mxGeometry width="50" height="50" relative="1" as="geometry">
            <mxPoint x="1040" y="1720" as="sourcePoint" />
            <mxPoint x="1050" y="1760" as="targetPoint" />
          </mxGeometry>
        </mxCell>
        <mxCell id="6_cSUB1AkO9mFOaKOOmG-177" value="" style="endArrow=none;html=1;rounded=0;fontFamily=Helvetica;fontSize=20;fillColor=default;" edge="1" parent="1">
          <mxGeometry width="50" height="50" relative="1" as="geometry">
            <mxPoint x="1050" y="1760" as="sourcePoint" />
            <mxPoint x="1330" y="1760" as="targetPoint" />
          </mxGeometry>
        </mxCell>
        <mxCell id="6_cSUB1AkO9mFOaKOOmG-178" value="" style="endArrow=none;html=1;rounded=0;fontFamily=Helvetica;fontSize=20;fillColor=default;" edge="1" parent="1">
          <mxGeometry width="50" height="50" relative="1" as="geometry">
            <mxPoint x="1530" y="1760" as="sourcePoint" />
            <mxPoint x="1540" y="1720" as="targetPoint" />
          </mxGeometry>
        </mxCell>
        <mxCell id="6_cSUB1AkO9mFOaKOOmG-179" value="" style="endArrow=none;html=1;rounded=0;fontFamily=Helvetica;fontSize=20;fillColor=default;" edge="1" parent="1">
          <mxGeometry width="50" height="50" relative="1" as="geometry">
            <mxPoint x="1330" y="1760" as="sourcePoint" />
            <mxPoint x="1530" y="1760" as="targetPoint" />
          </mxGeometry>
        </mxCell>
        <mxCell id="6_cSUB1AkO9mFOaKOOmG-180" value="" style="endArrow=none;html=1;rounded=0;fontFamily=Helvetica;fontSize=20;fillColor=default;" edge="1" parent="1">
          <mxGeometry width="50" height="50" relative="1" as="geometry">
            <mxPoint x="1570" y="1720" as="sourcePoint" />
            <mxPoint x="1580" y="1760" as="targetPoint" />
          </mxGeometry>
        </mxCell>
        <mxCell id="6_cSUB1AkO9mFOaKOOmG-181" value="" style="endArrow=none;html=1;rounded=0;fontFamily=Helvetica;fontSize=20;fillColor=default;" edge="1" parent="1">
          <mxGeometry width="50" height="50" relative="1" as="geometry">
            <mxPoint x="1580" y="1760" as="sourcePoint" />
            <mxPoint x="1800" y="1760" as="targetPoint" />
          </mxGeometry>
        </mxCell>
        <mxCell id="6_cSUB1AkO9mFOaKOOmG-182" value="" style="endArrow=none;html=1;rounded=0;fontFamily=Helvetica;fontSize=20;fillColor=default;" edge="1" parent="1">
          <mxGeometry width="50" height="50" relative="1" as="geometry">
            <mxPoint x="1540" y="1720" as="sourcePoint" />
            <mxPoint x="1570" y="1720" as="targetPoint" />
          </mxGeometry>
        </mxCell>
        <mxCell id="6_cSUB1AkO9mFOaKOOmG-183" value="" style="endArrow=none;html=1;rounded=0;fontFamily=Helvetica;fontSize=20;fillColor=default;" edge="1" parent="1">
          <mxGeometry width="50" height="50" relative="1" as="geometry">
            <mxPoint x="1040" y="1800" as="sourcePoint" />
            <mxPoint x="1050" y="1840" as="targetPoint" />
          </mxGeometry>
        </mxCell>
        <mxCell id="6_cSUB1AkO9mFOaKOOmG-184" value="" style="endArrow=none;html=1;rounded=0;fontFamily=Helvetica;fontSize=20;fillColor=default;" edge="1" parent="1">
          <mxGeometry width="50" height="50" relative="1" as="geometry">
            <mxPoint x="1050" y="1840" as="sourcePoint" />
            <mxPoint x="1330" y="1840" as="targetPoint" />
          </mxGeometry>
        </mxCell>
        <mxCell id="6_cSUB1AkO9mFOaKOOmG-185" value="" style="endArrow=none;html=1;rounded=0;fontFamily=Helvetica;fontSize=20;fillColor=default;" edge="1" parent="1">
          <mxGeometry width="50" height="50" relative="1" as="geometry">
            <mxPoint x="1330" y="1840" as="sourcePoint" />
            <mxPoint x="1340" y="1800" as="targetPoint" />
          </mxGeometry>
        </mxCell>
        <mxCell id="6_cSUB1AkO9mFOaKOOmG-186" value="" style="endArrow=none;html=1;rounded=0;fontFamily=Helvetica;fontSize=20;fillColor=default;" edge="1" parent="1">
          <mxGeometry width="50" height="50" relative="1" as="geometry">
            <mxPoint x="1330" y="1840" as="sourcePoint" />
            <mxPoint x="1330" y="1840" as="targetPoint" />
          </mxGeometry>
        </mxCell>
        <mxCell id="6_cSUB1AkO9mFOaKOOmG-187" value="" style="endArrow=none;html=1;rounded=0;fontFamily=Helvetica;fontSize=20;fillColor=default;" edge="1" parent="1">
          <mxGeometry width="50" height="50" relative="1" as="geometry">
            <mxPoint x="1610" y="1800" as="sourcePoint" />
            <mxPoint x="1620" y="1840" as="targetPoint" />
          </mxGeometry>
        </mxCell>
        <mxCell id="6_cSUB1AkO9mFOaKOOmG-188" value="" style="endArrow=none;html=1;rounded=0;fontFamily=Helvetica;fontSize=20;fillColor=default;" edge="1" parent="1">
          <mxGeometry width="50" height="50" relative="1" as="geometry">
            <mxPoint x="1620" y="1840" as="sourcePoint" />
            <mxPoint x="1800" y="1840" as="targetPoint" />
          </mxGeometry>
        </mxCell>
        <mxCell id="6_cSUB1AkO9mFOaKOOmG-189" value="" style="endArrow=none;html=1;rounded=0;fontFamily=Helvetica;fontSize=20;fillColor=default;" edge="1" parent="1">
          <mxGeometry width="50" height="50" relative="1" as="geometry">
            <mxPoint x="1340" y="1800" as="sourcePoint" />
            <mxPoint x="1610" y="1800" as="targetPoint" />
          </mxGeometry>
        </mxCell>
        <mxCell id="6_cSUB1AkO9mFOaKOOmG-190" value="AXI_ACLK" style="text;html=1;strokeColor=none;fillColor=none;align=center;verticalAlign=middle;whiteSpace=wrap;rounded=0;fontFamily=Helvetica;fontSize=20;" vertex="1" parent="1">
          <mxGeometry x="920" y="1490" width="110" height="30" as="geometry" />
        </mxCell>
        <mxCell id="6_cSUB1AkO9mFOaKOOmG-191" value="AXI_ARADDR" style="text;html=1;strokeColor=none;fillColor=none;align=center;verticalAlign=middle;whiteSpace=wrap;rounded=0;fontFamily=Helvetica;fontSize=20;" vertex="1" parent="1">
          <mxGeometry x="890" y="1570" width="140" height="30" as="geometry" />
        </mxCell>
        <mxCell id="6_cSUB1AkO9mFOaKOOmG-192" value="AXI_ARVALID" style="text;html=1;strokeColor=none;fillColor=none;align=center;verticalAlign=middle;whiteSpace=wrap;rounded=0;fontFamily=Helvetica;fontSize=20;" vertex="1" parent="1">
          <mxGeometry x="890" y="1650" width="140" height="30" as="geometry" />
        </mxCell>
        <mxCell id="6_cSUB1AkO9mFOaKOOmG-193" value="AXI_ARREADY" style="text;html=1;strokeColor=none;fillColor=none;align=center;verticalAlign=middle;whiteSpace=wrap;rounded=0;fontFamily=Helvetica;fontSize=20;" vertex="1" parent="1">
          <mxGeometry x="890" y="1730" width="140" height="30" as="geometry" />
        </mxCell>
        <mxCell id="6_cSUB1AkO9mFOaKOOmG-194" value="AXI_RREADY" style="text;html=1;strokeColor=none;fillColor=none;align=center;verticalAlign=middle;whiteSpace=wrap;rounded=0;fontFamily=Helvetica;fontSize=20;" vertex="1" parent="1">
          <mxGeometry x="890" y="1810" width="140" height="30" as="geometry" />
        </mxCell>
        <mxCell id="6_cSUB1AkO9mFOaKOOmG-196" value="&amp;nbsp; 00000000" style="shape=hexagon;perimeter=hexagonPerimeter2;whiteSpace=wrap;html=1;fixedSize=1;fontFamily=Helvetica;fontSize=20;size=10;fillColor=#f5f5f5;fontColor=#333333;strokeColor=#666666;align=left;" vertex="1" parent="1">
          <mxGeometry x="1040" y="1880" width="530" height="40" as="geometry" />
        </mxCell>
        <mxCell id="6_cSUB1AkO9mFOaKOOmG-198" value="&amp;nbsp; 0x7d" style="shape=hexagon;perimeter=hexagonPerimeter2;whiteSpace=wrap;html=1;fixedSize=1;fontFamily=Helvetica;fontSize=20;size=10;fillColor=#f5f5f5;fontColor=#333333;strokeColor=#666666;align=left;" vertex="1" parent="1">
          <mxGeometry x="1570" y="1880" width="250" height="40" as="geometry" />
        </mxCell>
        <mxCell id="6_cSUB1AkO9mFOaKOOmG-199" value="AXI_RDATA" style="text;html=1;strokeColor=none;fillColor=none;align=center;verticalAlign=middle;whiteSpace=wrap;rounded=0;fontFamily=Helvetica;fontSize=20;" vertex="1" parent="1">
          <mxGeometry x="900" y="1890" width="130" height="30" as="geometry" />
        </mxCell>
        <mxCell id="6_cSUB1AkO9mFOaKOOmG-200" value="" style="endArrow=none;html=1;rounded=0;fontFamily=Helvetica;fontSize=20;fillColor=default;" edge="1" parent="1">
          <mxGeometry width="50" height="50" relative="1" as="geometry">
            <mxPoint x="1040" y="1960" as="sourcePoint" />
            <mxPoint x="1050" y="2000" as="targetPoint" />
          </mxGeometry>
        </mxCell>
        <mxCell id="6_cSUB1AkO9mFOaKOOmG-201" value="" style="endArrow=none;html=1;rounded=0;fontFamily=Helvetica;fontSize=20;fillColor=default;" edge="1" parent="1">
          <mxGeometry width="50" height="50" relative="1" as="geometry">
            <mxPoint x="1050" y="2000" as="sourcePoint" />
            <mxPoint x="1330" y="2000" as="targetPoint" />
          </mxGeometry>
        </mxCell>
        <mxCell id="6_cSUB1AkO9mFOaKOOmG-202" value="" style="endArrow=none;html=1;rounded=0;fontFamily=Helvetica;fontSize=20;fillColor=default;" edge="1" parent="1">
          <mxGeometry width="50" height="50" relative="1" as="geometry">
            <mxPoint x="1570" y="2000" as="sourcePoint" />
            <mxPoint x="1580" y="1960" as="targetPoint" />
          </mxGeometry>
        </mxCell>
        <mxCell id="6_cSUB1AkO9mFOaKOOmG-203" value="" style="endArrow=none;html=1;rounded=0;fontFamily=Helvetica;fontSize=20;fillColor=default;" edge="1" parent="1">
          <mxGeometry width="50" height="50" relative="1" as="geometry">
            <mxPoint x="1330" y="2000" as="sourcePoint" />
            <mxPoint x="1570" y="2000" as="targetPoint" />
          </mxGeometry>
        </mxCell>
        <mxCell id="6_cSUB1AkO9mFOaKOOmG-204" value="" style="endArrow=none;html=1;rounded=0;fontFamily=Helvetica;fontSize=20;fillColor=default;" edge="1" parent="1">
          <mxGeometry width="50" height="50" relative="1" as="geometry">
            <mxPoint x="1610" y="1960" as="sourcePoint" />
            <mxPoint x="1620" y="2000" as="targetPoint" />
          </mxGeometry>
        </mxCell>
        <mxCell id="6_cSUB1AkO9mFOaKOOmG-205" value="" style="endArrow=none;html=1;rounded=0;fontFamily=Helvetica;fontSize=20;fillColor=default;" edge="1" parent="1">
          <mxGeometry width="50" height="50" relative="1" as="geometry">
            <mxPoint x="1620" y="2000" as="sourcePoint" />
            <mxPoint x="1800" y="2000" as="targetPoint" />
          </mxGeometry>
        </mxCell>
        <mxCell id="6_cSUB1AkO9mFOaKOOmG-206" value="" style="endArrow=none;html=1;rounded=0;fontFamily=Helvetica;fontSize=20;fillColor=default;" edge="1" parent="1">
          <mxGeometry width="50" height="50" relative="1" as="geometry">
            <mxPoint x="1580" y="1960" as="sourcePoint" />
            <mxPoint x="1610" y="1960" as="targetPoint" />
          </mxGeometry>
        </mxCell>
        <mxCell id="6_cSUB1AkO9mFOaKOOmG-207" value="AXI_RVALID" style="text;html=1;strokeColor=none;fillColor=none;align=center;verticalAlign=middle;whiteSpace=wrap;rounded=0;fontFamily=Helvetica;fontSize=20;" vertex="1" parent="1">
          <mxGeometry x="900" y="1970" width="130" height="30" as="geometry" />
        </mxCell>
      </root>
    </mxGraphModel>
  </diagram>
</mxfile>
